<?xml version="1.0" encoding="UTF-8" standalone="no"?>
<!-- Created with Inkscape (http://www.inkscape.org/) -->

<svg
   width="12.879076mm"
   height="15mm"
   viewBox="0 0 12.879076 14.999999"
   version="1.1"
   id="svg5"
   inkscape:version="1.1 (c68e22c387, 2021-05-23)"
   sodipodi:docname="logo-architectch.svg"
   xmlns:inkscape="http://www.inkscape.org/namespaces/inkscape"
   xmlns:sodipodi="http://sodipodi.sourceforge.net/DTD/sodipodi-0.dtd"
   xmlns="http://www.w3.org/2000/svg"
   xmlns:svg="http://www.w3.org/2000/svg">
  <sodipodi:namedview
     id="namedview7"
     pagecolor="#ffffff"
     bordercolor="#666666"
     borderopacity="1.0"
     inkscape:pageshadow="2"
     inkscape:pageopacity="0.0"
     inkscape:pagecheckerboard="0"
     inkscape:document-units="mm"
     showgrid="false"
     fit-margin-top="0"
     fit-margin-left="0"
     fit-margin-right="0"
     fit-margin-bottom="0"
     inkscape:zoom="5.9722784"
     inkscape:cx="10.883619"
     inkscape:cy="23.35792"
     inkscape:window-width="1920"
     inkscape:window-height="1001"
     inkscape:window-x="-9"
     inkscape:window-y="-9"
     inkscape:window-maximized="1"
     inkscape:current-layer="layer1" />
  <defs
     id="defs2">
    <pattern
       id="EMFhbasepattern"
       patternUnits="userSpaceOnUse"
       width="6"
       height="6"
       x="0"
       y="0" />
  </defs>
  <g
     inkscape:label="Calque 1"
     inkscape:groupmode="layer"
     id="layer1"
     transform="translate(-89.220054,-122.41433)">
    <path
       style="fill:#ffffff;fill-opacity:1;fill-rule:nonzero;stroke:none;stroke-width:0.264583"
       d="m 95.691004,122.41754 c 3.518189,0 6.408126,2.91231 6.408126,6.52107 0,3.60877 -2.889937,6.52107 -6.408126,6.52107 -3.581009,0 -6.47095,-2.9123 -6.47095,-6.52107 0,-3.60876 2.889941,-6.52107 6.47095,-6.52107 z"
       id="path827" />
    <path
       style="fill:#020202;fill-opacity:1;fill-rule:nonzero;stroke:#010101;stroke-width:0.0881945px;stroke-linecap:butt;stroke-linejoin:miter;stroke-miterlimit:4;stroke-dasharray:none;stroke-opacity:1"
       d="m 95.37688,122.41754 c -0.37695,5.16195 -0.37695,5.16195 -0.37695,5.16195 -1.444968,0.25183 -1.444968,0.25183 -1.444968,0.25183 0,0.18879 0,0.18879 0,0.18879 1.256498,-0.18879 2.450168,-0.12533 3.518187,-0.0621 0,-0.18887 0,-0.18887 0,-0.18887 -1.382145,-0.18885 -1.382145,-0.18885 -1.382145,-0.18885 z"
       id="path829" />
    <path
       style="fill:#020202;fill-opacity:1;fill-rule:nonzero;stroke:#010101;stroke-width:0.0881945px;stroke-linecap:butt;stroke-linejoin:miter;stroke-miterlimit:4;stroke-dasharray:none;stroke-opacity:1"
       d="m 93.554962,129.7828 c 0.376949,0.4406 0.376949,0.4406 0.376949,0.4406 0,0 -0.43977,0.0621 -0.43977,0.3777 0,0.31474 0.43977,0.44072 0.43977,0.44072 2.88994,-0.12548 2.88994,-0.12548 2.88994,-0.12548 0,0 0.628248,-0.0621 0.439775,-0.50364 0,0 -0.2513,-0.25182 -0.439775,-0.18882 0.376947,-0.56655 0.376947,-0.56655 0.376947,-0.56655 -1.193668,-0.0621 -2.387338,-0.0621 -3.643836,0.12586 z"
       id="path831" />
    <path
       style="fill:#020202;fill-opacity:1;fill-rule:nonzero;stroke:#010101;stroke-width:0.0881945px;stroke-linecap:butt;stroke-linejoin:miter;stroke-miterlimit:4;stroke-dasharray:none;stroke-opacity:1"
       d="m 94.748633,131.35659 -1.130848,5.98024 3.015591,-1.44781 -0.879546,-4.59542 z"
       id="path833" />
    <path
       style="fill:#020202;fill-opacity:1;fill-rule:nonzero;stroke:#010101;stroke-width:0.0881945px;stroke-linecap:butt;stroke-linejoin:miter;stroke-miterlimit:4;stroke-dasharray:none;stroke-opacity:1"
       d="m 93.554962,128.39787 c 1.382146,-0.18886 2.198868,-0.25181 3.518187,-0.12604 0.188477,1.13314 0.188477,1.13314 0.188477,1.13314 -1.193674,-0.12583 -2.450166,-0.0621 -3.706664,0.0621 z"
       id="path835" />
    <path
       style="fill:none;stroke:#ffffff;stroke-width:0.153;stroke-linecap:butt;stroke-linejoin:miter;stroke-miterlimit:4;stroke-dasharray:none;stroke-opacity:1"
       d="m 93.806263,128.20901 -0.06286,1.32194"
       id="path837" />
    <path
       style="fill:none;stroke:#ffffff;stroke-width:0.153;stroke-linecap:butt;stroke-linejoin:miter;stroke-miterlimit:4;stroke-dasharray:none;stroke-opacity:1"
       d="m 96.759029,128.14606 0.125678,1.32197"
       id="path839" />
    <path
       style="fill:none;stroke:#ffffff;stroke-width:0.153;stroke-linecap:butt;stroke-linejoin:miter;stroke-miterlimit:4;stroke-dasharray:none;stroke-opacity:1"
       d="m 96.256428,128.08311 0.06286,1.38492"
       id="path841" />
    <path
       style="fill:none;stroke:#ffffff;stroke-width:0.153;stroke-linecap:butt;stroke-linejoin:miter;stroke-miterlimit:4;stroke-dasharray:none;stroke-opacity:1"
       d="m 94.371684,128.14606 0.06286,1.32197"
       id="path843" />
    <path
       style="fill:none;stroke:#ffffff;stroke-width:0.153;stroke-linecap:butt;stroke-linejoin:miter;stroke-miterlimit:4;stroke-dasharray:none;stroke-opacity:1"
       d="m 95.628182,128.08311 0.06286,1.322"
       id="path845" />
    <path
       style="fill:none;stroke:#ffffff;stroke-width:0.153;stroke-linecap:butt;stroke-linejoin:miter;stroke-miterlimit:4;stroke-dasharray:none;stroke-opacity:1"
       d="m 94.99993,128.08311 0.06286,1.322"
       id="path847" />
  </g>
</svg>
